FILE "Motteke Tamago (Japan) (En) (v1.0) (Dave Shadoff).bin" BINARY
  TRACK 01 AUDIO
    INDEX 01 00:00:00
  TRACK 02 MODE1/2352
    PREGAP 00:03:00
    INDEX 01 00:44:65
  TRACK 03 AUDIO
    PREGAP 00:02:00
    INDEX 01 00:50:73
  TRACK 04 AUDIO
    INDEX 01 11:00:15
  TRACK 05 AUDIO
    INDEX 01 21:03:15
  TRACK 06 AUDIO
    INDEX 01 31:13:16
  TRACK 07 AUDIO
    INDEX 01 34:18:33
  TRACK 08 AUDIO
    INDEX 01 34:52:08
  TRACK 09 MODE1/2352
    PREGAP 00:03:00
    INDEX 01 36:54:04
